<svg width="512" height="512" viewBox="0 0 512 512" fill="none" xmlns="http://www.w3.org/2000/svg">
  <rect width="512" height="512" rx="128" fill="#3B82F6"/>
  <path d="M128 128C128 115.716 137.716 106 150 106H362C374.284 106 384 115.716 384 128V384C384 396.284 374.284 406 362 406H150C137.716 406 128 396.284 128 384V128Z" fill="white"/>
  <path d="M150 86C137.716 86 128 95.7157 128 108V128H384V108C384 95.7157 374.284 86 362 86H150Z" fill="#1E40AF"/>
  <path d="M192 166C192 158.268 198.268 152 206 152H306C313.732 152 320 158.268 320 166V186C320 193.732 313.732 200 306 200H206C198.268 200 192 193.732 192 186V166Z" fill="#3B82F6"/>
  <path d="M192 226C192 218.268 198.268 212 206 212H306C313.732 212 320 218.268 320 226V246C320 253.732 313.732 260 306 260H206C198.268 260 192 253.732 192 246V226Z" fill="#3B82F6"/>
  <path d="M192 286C192 278.268 198.268 272 206 272H306C313.732 272 320 278.268 320 286V306C320 313.732 313.732 320 306 320H206C198.268 320 192 313.732 192 306V286Z" fill="#3B82F6"/>
  <path d="M192 346C192 338.268 198.268 332 206 332H306C313.732 332 320 338.268 320 346V366C320 373.732 313.732 380 306 380H206C198.268 380 192 373.732 192 366V346Z" fill="#3B82F6"/>
  <circle cx="160" cy="176" r="8" fill="#1E40AF"/>
  <circle cx="160" cy="236" r="8" fill="#1E40AF"/>
  <circle cx="160" cy="296" r="8" fill="#1E40AF"/>
  <circle cx="160" cy="356" r="8" fill="#1E40AF"/>
</svg>
